<svg viewBox="0 0 680 384" xmlns="http://www.w3.org/2000/svg"><style>text{font-family:"Segoe UI","Microsoft YaHei","PingFang SC",sans-serif}.t{fill:#2C2C2A}.ts{fill:#5F5E5A}.th{fill:#888780}.c-teal rect{fill:#E1F5EE}.c-teal .t{fill:#0F6E56}.c-teal .ts{fill:#1D9E75}.c-gray rect{fill:#F1EFE8}.c-gray .t{fill:#444441}.c-gray .ts{fill:#5F5E5A}.c-amber rect{fill:#FAEEDA}.c-amber .t{fill:#854F0B}.c-amber .ts{fill:#BA7517}.c-purple rect{fill:#EEEDFE}.c-purple .t{fill:#3C3489}.c-purple .ts{fill:#534AB7}.c-red rect{fill:#FCEBEB}.c-red .t{fill:#A32D2D}.c-red .ts{fill:#A32D2D}.c-green rect{fill:#EAF3DE}.c-green .t{fill:#27500A}.c-green .ts{fill:#3B6D11}</style><rect width="680" height="384" fill="#FAF9F5"/>
  <defs><marker id="a" viewBox="0 0 10 10" refX="8" refY="5" markerWidth="6" markerHeight="6" orient="auto-start-reverse"><path d="M2 1L8 5L2 9" fill="none" stroke="context-stroke" stroke-width="1.5" stroke-linecap="round" stroke-linejoin="round"/></marker></defs>
  <text x="24" y="26" class="t" font-size="16" font-weight="500">具身模型功能演进:两条技术轴 × 各三阶段(跨公司)</text>

  <text x="24" y="50" class="t" font-size="13" font-weight="500">① 统一模型轴 · 一个模型逐步吞下更多功能 →</text>
  <g class="c-teal"><rect x="24" y="58" width="192" height="92" rx="9"/><text class="t" x="34" y="78" font-size="11" font-weight="500">U1 基础统一 VLA</text><text class="ts" x="34" y="96" font-size="9.5">感知+语言→动作,无显式推理</text><text class="ts" x="34" y="114" font-size="9.5">RT-2 · OpenVLA · π0 · GR00T</text></g>
  <g class="c-teal"><rect x="244" y="58" width="192" height="92" rx="9"/><text class="t" x="254" y="78" font-size="11" font-weight="500">U2 会推理的统一模型</text><text class="ts" x="254" y="96" font-size="9.5">模型内 CoT / 子任务分解</text><text class="ts" x="254" y="114" font-size="9.5">π0.5 · G0.5 · CoT-VLA</text></g>
  <g class="c-teal"><rect x="464" y="58" width="192" height="92" rx="9"/><text class="t" x="474" y="78" font-size="11" font-weight="500">U3 +世界模型/记忆/自改进</text><text class="ts" x="474" y="96" font-size="9.5">再吸收想象 + 经验(功能簇)</text><text class="ts" x="474" y="114" font-size="9.5">π0.7 · π0.6 · Motus</text></g>
  <line x1="216" y1="104" x2="242" y2="104" stroke="#2C2C2A" stroke-width="1.5" marker-end="url(#a)"/>
  <line x1="436" y1="104" x2="462" y2="104" stroke="#2C2C2A" stroke-width="1.5" marker-end="url(#a)"/>

  <line x1="130" y1="222" x2="320" y2="152" stroke="#A32D2D" stroke-width="1.4" stroke-dasharray="5 3" marker-end="url(#a)"/>
  <text x="318" y="172" class="ts" font-size="9.5" text-anchor="end">Galaxea:G0 → G0.5 跳轨(分层→统一)</text>

  <text x="24" y="214" class="t" font-size="13" font-weight="500">② 大小脑分层轴 · 小脑逐步独立 → 多专家 →</text>
  <g class="c-purple"><rect x="24" y="222" width="192" height="92" rx="9"/><text class="t" x="34" y="242" font-size="11" font-weight="500">L1 双系统·小脑薄执行头</text><text class="ts" x="34" y="260" font-size="9.5">脑+小脑分开,小脑薄/共训</text><text class="ts" x="34" y="278" font-size="9.5">Helix~ · Galaxea G0 · Atlas~</text></g>
  <g class="c-purple"><rect x="244" y="222" width="192" height="92" rx="9"/><text class="t" x="254" y="242" font-size="11" font-weight="500">L2 小脑=通用运控基座</text><text class="ts" x="254" y="260" font-size="9.5">小脑独立成泛化运动基座</text><text class="ts" x="254" y="278" font-size="9.5">智元 BFM-2~ · GCFM~ · NeuroVLA</text></g>
  <g class="c-amber"><rect x="464" y="222" width="192" height="92" rx="9" stroke="#BA7517" stroke-width="1" stroke-dasharray="4 3"/><text class="t" x="474" y="242" font-size="11" font-weight="500">L3 小脑多专家库+脑编排</text><text class="ts" x="474" y="259" font-size="9.5">小脑=可路由专家库(前沿)</text><text class="ts" x="474" y="276" font-size="9.5">Being-0 · MetaWorld-X</text><text class="ts" x="474" y="291" font-size="9.5">ChemBot · 本框架(提案)</text></g>
  <line x1="216" y1="268" x2="242" y2="268" stroke="#2C2C2A" stroke-width="1.5" marker-end="url(#a)"/>
  <line x1="436" y1="268" x2="462" y2="268" stroke="#2C2C2A" stroke-width="1.5" marker-end="url(#a)"/>

  <text x="24" y="334" class="ts" font-size="10">大小脑交互沿②轴变重:L1 紧耦合(latent/子任务)→ L2 小脑接管连续性 → L3 大脑编排专家库。</text>
  <text x="24" y="352" class="th" font-size="9">标注:带 ~ 者为厂商/新闻自报;余者有论文 / 已核实。L3 虽属前沿,已有 Being-0、MetaWorld-X 等真实例,非纯提案。</text>
  <text x="24" y="368" class="th" font-size="9">MoE(Motus / TwinBrain / π MoE-style)= 「多专家但不分层」的横切技法,跨两轴,不单列阶段。</text>
</svg>