<svg viewBox="0 0 680 415" xmlns="http://www.w3.org/2000/svg"><style>text{font-family:"Segoe UI","Microsoft YaHei","PingFang SC",sans-serif}.t{fill:#2C2C2A}.ts{fill:#5F5E5A}.th{fill:#888780}.c-teal rect{fill:#E1F5EE}.c-teal .t{fill:#0F6E56}.c-teal .ts{fill:#1D9E75}.c-gray rect{fill:#F1EFE8}.c-gray .t{fill:#444441}.c-gray .ts{fill:#5F5E5A}.c-amber rect{fill:#FAEEDA}.c-amber .t{fill:#854F0B}.c-amber .ts{fill:#BA7517}.c-purple rect{fill:#EEEDFE}.c-purple .t{fill:#3C3489}.c-purple .ts{fill:#534AB7}.c-red rect{fill:#FCEBEB}.c-red .t{fill:#A32D2D}.c-red .ts{fill:#A32D2D}.c-green rect{fill:#EAF3DE}.c-green .t{fill:#27500A}.c-green .ts{fill:#3B6D11}</style><rect width="680" height="415" fill="#FAF9F5"/>
  <defs><marker id="bi" viewBox="0 0 10 10" refX="8" refY="5" markerWidth="6" markerHeight="6" orient="auto-start-reverse"><path d="M2 1L8 5L2 9" fill="none" stroke="context-stroke" stroke-width="1.5" stroke-linecap="round" stroke-linejoin="round"/></marker></defs>
  <text x="24" y="28" class="t" font-size="16" font-weight="500">T3 模块化联邦协同:通用技能联邦共享,场景特化本地保留</text>
  <g class="c-teal"><rect x="200" y="66" width="280" height="58" rx="10"/><text class="t" x="340" y="90" font-size="13" text-anchor="middle">云② · 按技能联邦聚合(FedAvg)</text><text class="ts" x="340" y="108" font-size="10" text-anchor="middle">仅聚合通用技能 adapter,非原始数据</text></g>
  <line x1="120" y1="296" x2="250" y2="126" stroke="#1D9E75" stroke-width="1.5" marker-start="url(#bi)" marker-end="url(#bi)"/>
  <line x1="340" y1="296" x2="340" y2="126" stroke="#1D9E75" stroke-width="1.5" marker-start="url(#bi)" marker-end="url(#bi)"/>
  <line x1="560" y1="296" x2="440" y2="126" stroke="#1D9E75" stroke-width="1.5" marker-start="url(#bi)" marker-end="url(#bi)"/>
  <text x="392" y="200" class="ts" font-size="10" text-anchor="middle">↕ Δadapter 上行 / 聚合下行(仅通用技能)</text>
  <text x="392" y="216" class="th" font-size="9" text-anchor="middle">非全量权重 · 非原始数据</text>
  <rect x="30" y="270" width="180" height="112" rx="10" fill="none" stroke="#C9C7BD" stroke-width="1"/>
  <text x="120" y="288" class="t" font-size="13" text-anchor="middle">家庭 A</text>
  <g class="c-teal"><rect x="40" y="296" width="160" height="28" rx="6"/><text class="t" x="120" y="314" font-size="11" text-anchor="middle">通用技能 adapter</text></g>
  <g class="c-amber"><rect x="40" y="330" width="160" height="28" rx="6"/><text class="t" x="120" y="348" font-size="11" text-anchor="middle">特化 adapter(本地)</text></g>
  <rect x="250" y="270" width="180" height="112" rx="10" fill="none" stroke="#C9C7BD" stroke-width="1"/>
  <text x="340" y="288" class="t" font-size="13" text-anchor="middle">工厂 B</text>
  <g class="c-teal"><rect x="260" y="296" width="160" height="28" rx="6"/><text class="t" x="340" y="314" font-size="11" text-anchor="middle">通用技能 adapter</text></g>
  <g class="c-amber"><rect x="260" y="330" width="160" height="28" rx="6"/><text class="t" x="340" y="348" font-size="11" text-anchor="middle">特化 adapter(本地)</text></g>
  <rect x="470" y="270" width="180" height="112" rx="10" fill="none" stroke="#C9C7BD" stroke-width="1"/>
  <text x="560" y="288" class="t" font-size="13" text-anchor="middle">商场 C</text>
  <g class="c-teal"><rect x="480" y="296" width="160" height="28" rx="6"/><text class="t" x="560" y="314" font-size="11" text-anchor="middle">通用技能 adapter</text></g>
  <g class="c-amber"><rect x="480" y="330" width="160" height="28" rx="6"/><text class="t" x="560" y="348" font-size="11" text-anchor="middle">特化 adapter(本地)</text></g>
  <text x="24" y="404" class="th" font-size="11">通用上行共享 + 特化本地保留 → 个性化 vs 泛化两全(模块粒度联邦;通用技能 adapter 跨端聚合,特化 adapter 不上传)。</text>
</svg>