<svg viewBox="0 0 680 430" xmlns="http://www.w3.org/2000/svg"><style>text{font-family:"Segoe UI","Microsoft YaHei","PingFang SC",sans-serif}.t{fill:#2C2C2A}.ts{fill:#5F5E5A}.th{fill:#888780}.c-teal rect{fill:#E1F5EE}.c-teal .t{fill:#0F6E56}.c-teal .ts{fill:#1D9E75}.c-gray rect{fill:#F1EFE8}.c-gray .t{fill:#444441}.c-gray .ts{fill:#5F5E5A}.c-amber rect{fill:#FAEEDA}.c-amber .t{fill:#854F0B}.c-amber .ts{fill:#BA7517}.c-purple rect{fill:#EEEDFE}.c-purple .t{fill:#3C3489}.c-purple .ts{fill:#534AB7}.c-red rect{fill:#FCEBEB}.c-red .t{fill:#A32D2D}.c-red .ts{fill:#A32D2D}.c-green rect{fill:#EAF3DE}.c-green .t{fill:#27500A}.c-green .ts{fill:#3B6D11}</style><rect width="680" height="430" fill="#FAF9F5"/>
  <defs><marker id="bi" viewBox="0 0 10 10" refX="8" refY="5" markerWidth="6" markerHeight="6" orient="auto-start-reverse"><path d="M2 1L8 5L2 9" fill="none" stroke="context-stroke" stroke-width="1.5" stroke-linecap="round" stroke-linejoin="round"/></marker></defs>
  <text x="24" y="28" class="t" font-size="17" font-weight="500">跨场景:孤岛各自微调 vs 协同演进</text>
  <line x1="340" y1="46" x2="340" y2="398" stroke="#C9C7BD" stroke-width="0.5" stroke-dasharray="4 4"/>
  <text x="30" y="60" class="t" font-size="14" font-weight="500">现状 · 场景孤岛(✗)</text>
  <g class="c-gray"><rect x="45" y="82" width="125" height="52" rx="8"/><text class="t" x="107" y="106" font-size="13" text-anchor="middle">家庭 A</text><text class="ts" x="107" y="123" font-size="10" text-anchor="middle">↻ 单独微调 / RL</text></g>
  <g class="c-gray"><rect x="185" y="82" width="125" height="52" rx="8"/><text class="t" x="247" y="106" font-size="13" text-anchor="middle">家庭 B</text><text class="ts" x="247" y="123" font-size="10" text-anchor="middle">↻ 单独微调 / RL</text></g>
  <g class="c-gray"><rect x="45" y="150" width="125" height="52" rx="8"/><text class="t" x="107" y="174" font-size="13" text-anchor="middle">工厂 C</text><text class="ts" x="107" y="191" font-size="10" text-anchor="middle">↻ 单独微调 / RL</text></g>
  <g class="c-gray"><rect x="185" y="150" width="125" height="52" rx="8"/><text class="t" x="247" y="174" font-size="13" text-anchor="middle">商场 D</text><text class="ts" x="247" y="191" font-size="10" text-anchor="middle">↻ 单独微调 / RL</text></g>
  <text x="30" y="236" class="ts" font-size="11">各自为战:每场景单独微调 / RL,彼此无连接</text>
  <g class="c-red"><text class="t" x="30" y="254" font-size="11">经验不流动 → 重复劳动、增益不传播</text></g>
  <text x="356" y="60" class="t" font-size="14" font-weight="500">协同演进(✓)</text>
  <line x1="437" y1="120" x2="462" y2="131" stroke="#1D9E75" stroke-width="1.5" marker-start="url(#bi)" marker-end="url(#bi)"/>
  <line x1="585" y1="120" x2="568" y2="131" stroke="#1D9E75" stroke-width="1.5" marker-start="url(#bi)" marker-end="url(#bi)"/>
  <line x1="437" y1="200" x2="462" y2="157" stroke="#1D9E75" stroke-width="1.5" marker-start="url(#bi)" marker-end="url(#bi)"/>
  <line x1="585" y1="200" x2="568" y2="157" stroke="#1D9E75" stroke-width="1.5" marker-start="url(#bi)" marker-end="url(#bi)"/>
  <g class="c-teal"><rect x="458" y="116" width="114" height="50" rx="8"/><text class="t" x="515" y="137" font-size="12" text-anchor="middle">云 · 车队聚合</text><text class="ts" x="515" y="154" font-size="10" text-anchor="middle">+ 共享下发</text></g>
  <g class="c-gray"><rect x="356" y="92" width="82" height="34" rx="6"/><text class="t" x="397" y="113" font-size="11" text-anchor="middle">家庭 A</text></g>
  <g class="c-gray"><rect x="585" y="92" width="82" height="34" rx="6"/><text class="t" x="626" y="113" font-size="11" text-anchor="middle">家庭 B</text></g>
  <g class="c-gray"><rect x="356" y="190" width="82" height="34" rx="6"/><text class="t" x="397" y="211" font-size="11" text-anchor="middle">工厂 C</text></g>
  <g class="c-gray"><rect x="585" y="190" width="82" height="34" rx="6"/><text class="t" x="626" y="211" font-size="11" text-anchor="middle">商场 D</text></g>
  <text x="515" y="184" class="th" font-size="10" text-anchor="middle">↑ 经验上行   ↓ 共享下发</text>
  <text x="356" y="248" class="ts" font-size="11">通用技能聚合共享 · 场景特化留本地</text>
  <g class="c-teal"><text class="t" x="356" y="266" font-size="11">一处学到、全队受益</text></g>
  <text x="24" y="416" class="th" font-size="11">示意图。节点 = 场景/部署;孤岛 = 无跨场景经验流动;协同 = 经验上行 + 共享下发(云② 车队聚合 + B 模块化)。</text>
</svg>